ffmpeg started on 2025-06-07 at 16:32:45
Report written to "D:\Convert\FFMetrics\reports\ssim_report-6.txt"
Log level: 32
Command line:
ffmpeg -hide_banner -nostdin -i "G:\\\xc0\xed\xe8\xec\xe5\\\xce\xed\xe3\xee\xe8\xed\xe3\xe8\\!_36_\xce\xf1\xe5\xed\xfc_2024\\DreamCast\\\xd6\xe8\xea\xeb \xe8\xf1\xf2\xee\xf0\xe8\xe9 - \xcc\xe5\xe6\xf1\xe5\xe7\xee\xed\xfc\xe5 \xe8 \xf1\xe5\xe7\xee\xed \xec\xee\xed\xf1\xf2\xf0\xee\xe2\\DC_Monogatari_Series_Off_and_Monster_Season_04_Telegram_HEVC.mkv" -i "G:\\\xc0\xed\xe8\xec\xe5\\\xce\xed\xe3\xee\xe8\xed\xe3\xe8\\!_36_\xce\xf1\xe5\xed\xfc_2024\\DreamCast\\\xd6\xe8\xea\xeb \xe8\xf1\xf2\xee\xf0\xe8\xe9 - \xcc\xe5\xe6\xf1\xe5\xe7\xee\xed\xfc\xe5 \xe8 \xf1\xe5\xe7\xee\xed \xec\xee\xed\xf1\xf2\xf0\xee\xe2\\DC_Monogatari_Series_Off_and_Monster_Season_04_Telegram.mp4" -lavfi "[0:v]settb=AVTB,setpts=PTS-STARTPTS,format=pix_fmts=yuv420p10,fps=24000/1001,scale=1920:1080:flags=bicubic[main];[1:v]settb=AVTB,setpts=PTS-STARTPTS,format=pix_fmts=yuv420p,fps=24000/1001,scale=1920:1080:flags=bicubic[ref];[main][ref]ssim=eof_action=endall:stats_file='D\\:/Convert/FFMetrics/logs/ssim_logfile-6.txt'" -f null -
Input #0, matroska,webm, from 'G:\Аниме\Онгоинги\!_36_Осень_2024\DreamCast\Цикл историй - Межсезонье и сезон монстров\DC_Monogatari_Series_Off_and_Monster_Season_04_Telegram_HEVC.mkv':
  Metadata:
    COMPATIBLE_BRANDS: isomiso2avc1mp41
    MAJOR_BRAND     : isom
    MINOR_VERSION   : 512
    ENCODER         : Lavf61.7.100
  Duration: 00:25:13.47, start: -0.021000, bitrate: 1577 kb/s
  Stream #0:0: Video: hevc (Main 10), yuv420p10le(tv, bt709, progressive), 1920x1080 [SAR 1:1 DAR 16:9], 23.98 fps, 23.98 tbr, 1k tbn (default)
      Metadata:
        HANDLER_NAME    : VideoHandler
        VENDOR_ID       : [0][0][0][0]
        ENCODER         : Lavc61.19.100 libx265
        BPS             : 1382290
        DURATION        : 00:25:11.509708333
        NUMBER_OF_FRAMES: 36240
        NUMBER_OF_BYTES : 261168068
        _STATISTICS_WRITING_APP: mkvpropedit v66.0.0 ('Josie') 64-bit
        _STATISTICS_WRITING_DATE_UTC: 2025-06-05 10:34:43
        _STATISTICS_TAGS: BPS DURATION NUMBER_OF_FRAMES NUMBER_OF_BYTES
  Stream #0:1: Audio: aac (LC), 48000 Hz, stereo, fltp (default)
      Metadata:
        HANDLER_NAME    : SoundHandler
        VENDOR_ID       : [0][0][0][0]
        ENCODER         : Lavc61.19.100 aac
        BPS             : 192692
        DURATION        : 00:25:13.472000000
        NUMBER_OF_FRAMES: 70945
        NUMBER_OF_BYTES : 36454378
        _STATISTICS_WRITING_APP: mkvpropedit v66.0.0 ('Josie') 64-bit
        _STATISTICS_WRITING_DATE_UTC: 2025-06-05 10:34:43
        _STATISTICS_TAGS: BPS DURATION NUMBER_OF_FRAMES NUMBER_OF_BYTES
Input #1, mov,mp4,m4a,3gp,3g2,mj2, from 'G:\Аниме\Онгоинги\!_36_Осень_2024\DreamCast\Цикл историй - Межсезонье и сезон монстров\DC_Monogatari_Series_Off_and_Monster_Season_04_Telegram.mp4':
  Metadata:
    major_brand     : isom
    minor_version   : 512
    compatible_brands: isomiso2avc1mp41
    encoder         : Lavf61.1.100
  Duration: 00:25:13.41, start: 0.000000, bitrate: 3418 kb/s
  Stream #1:0[0x1](und): Video: h264 (High) (avc1 / 0x31637661), yuv420p(tv, bt709, progressive), 1920x1080 [SAR 1:1 DAR 16:9], 3274 kb/s, 23.98 fps, 23.98 tbr, 24k tbn (default)
      Metadata:
        handler_name    : VideoHandler
        vendor_id       : [0][0][0][0]
        encoder         : Lavc61.3.100 h264_qsv
  Stream #1:1[0x2](und): Audio: aac (HE-AACv2) (mp4a / 0x6134706D), 48000 Hz, stereo, fltp, 144 kb/s (default)
      Metadata:
        handler_name    : SoundHandler
        vendor_id       : [0][0][0][0]
Stream mapping:
  Stream #0:0 (hevc) -> settb:default
  Stream #1:0 (h264) -> settb:default
  ssim:default -> Stream #0:0 (wrapped_avframe)
  Stream #0:1 -> #0:1 (aac (native) -> pcm_s16le (native))
Output #0, null, to 'pipe:':
  Metadata:
    COMPATIBLE_BRANDS: isomiso2avc1mp41
    MAJOR_BRAND     : isom
    MINOR_VERSION   : 512
    encoder         : Lavf61.7.100
  Stream #0:0: Video: wrapped_avframe, yuv420p10le(tv, bt709, progressive), 1920x1080 [SAR 1:1 DAR 16:9], q=2-31, 200 kb/s, 23.98 fps, 23.98 tbn
      Metadata:
        encoder         : Lavc61.19.100 wrapped_avframe
  Stream #0:1: Audio: pcm_s16le, 48000 Hz, stereo, s16, 1536 kb/s (default)
      Metadata:
        HANDLER_NAME    : SoundHandler
        VENDOR_ID       : [0][0][0][0]
        _STATISTICS_TAGS: BPS DURATION NUMBER_OF_FRAMES NUMBER_OF_BYTES
        BPS             : 192692
        DURATION        : 00:25:13.472000000
        NUMBER_OF_FRAMES: 70945
        NUMBER_OF_BYTES : 36454378
        _STATISTICS_WRITING_APP: mkvpropedit v66.0.0 ('Josie') 64-bit
        _STATISTICS_WRITING_DATE_UTC: 2025-06-05 10:34:43
        encoder         : Lavc61.19.100 pcm_s16le
frame=  180 fps=0.0 q=-0.0 size=N/A time=00:00:07.50 bitrate=N/A speed=14.6x    frame=  455 fps=446 q=-0.0 size=N/A time=00:00:18.97 bitrate=N/A speed=18.6x    frame=  739 fps=479 q=-0.0 size=N/A time=00:00:30.82 bitrate=N/A speed=  20x    frame= 1034 fps=505 q=-0.0 size=N/A time=00:00:43.12 bitrate=N/A speed=  21x    frame= 1316 fps=511 q=-0.0 size=N/A time=00:00:54.88 bitrate=N/A speed=21.3x    frame= 1599 fps=518 q=-0.0 size=N/A time=00:01:06.69 bitrate=N/A speed=21.6x    frame= 1843 fps=510 q=-0.0 size=N/A time=00:01:16.86 bitrate=N/A speed=21.3x    frame= 2046 fps=497 q=-0.0 size=N/A time=00:01:25.33 bitrate=N/A speed=20.7x    frame= 2268 fps=490 q=-0.0 size=N/A time=00:01:34.59 bitrate=N/A speed=20.4x    frame= 2493 fps=484 q=-0.0 size=N/A time=00:01:43.97 bitrate=N/A speed=20.2x    frame= 2719 fps=480 q=-0.0 size=N/A time=00:01:53.40 bitrate=N/A speed=  20x    frame= 2953 fps=478 q=-0.0 size=N/A time=00:02:03.16 bitrate=N/A speed=19.9x    frame= 3156 fps=471 q=-0.0 size=N/A time=00:02:11.63 bitrate=N/A speed=19.6x    frame= 3388 fps=470 q=-0.0 size=N/A time=00:02:21.30 bitrate=N/A speed=19.6x    frame= 3587 fps=464 q=-0.0 size=N/A time=00:02:29.60 bitrate=N/A speed=19.4x    frame= 3852 fps=467 q=-0.0 size=N/A time=00:02:40.66 bitrate=N/A speed=19.5x    frame= 4099 fps=468 q=-0.0 size=N/A time=00:02:50.96 bitrate=N/A speed=19.5x    frame= 4348 fps=469 q=-0.0 size=N/A time=00:03:01.34 bitrate=N/A speed=19.5x    frame= 4591 fps=469 q=-0.0 size=N/A time=00:03:11.48 bitrate=N/A speed=19.6x    frame= 4862 fps=472 q=-0.0 size=N/A time=00:03:22.78 bitrate=N/A speed=19.7x    frame= 5103 fps=471 q=-0.0 size=N/A time=00:03:32.83 bitrate=N/A speed=19.7x    frame= 5357 fps=472 q=-0.0 size=N/A time=00:03:43.43 bitrate=N/A speed=19.7x    frame= 5605 fps=473 q=-0.0 size=N/A time=00:03:53.77 bitrate=N/A speed=19.7x    frame= 5844 fps=472 q=-0.0 size=N/A time=00:04:03.74 bitrate=N/A speed=19.7x    frame= 6082 fps=472 q=-0.0 size=N/A time=00:04:13.67 bitrate=N/A speed=19.7x    frame= 6340 fps=473 q=-0.0 size=N/A time=00:04:24.43 bitrate=N/A speed=19.7x    frame= 6624 fps=476 q=-0.0 size=N/A time=00:04:36.27 bitrate=N/A speed=19.9x    frame= 6888 fps=477 q=-0.0 size=N/A time=00:04:47.28 bitrate=N/A speed=19.9x    frame= 7130 fps=477 q=-0.0 size=N/A time=00:04:57.38 bitrate=N/A speed=19.9x    frame= 7373 fps=477 q=-0.0 size=N/A time=00:05:07.51 bitrate=N/A speed=19.9x    frame= 7614 fps=477 q=-0.0 size=N/A time=00:05:17.56 bitrate=N/A speed=19.9x    frame= 7866 fps=477 q=-0.0 size=N/A time=00:05:28.07 bitrate=N/A speed=19.9x    frame= 8090 fps=475 q=-0.0 size=N/A time=00:05:37.42 bitrate=N/A speed=19.8x    frame= 8350 fps=476 q=-0.0 size=N/A time=00:05:48.26 bitrate=N/A speed=19.9x    frame= 8577 fps=475 q=-0.0 size=N/A time=00:05:57.73 bitrate=N/A speed=19.8x    frame= 8807 fps=474 q=-0.0 size=N/A time=00:06:07.32 bitrate=N/A speed=19.8x    frame= 9052 fps=474 q=-0.0 size=N/A time=00:06:17.54 bitrate=N/A speed=19.8x    frame= 9302 fps=474 q=-0.0 size=N/A time=00:06:27.97 bitrate=N/A speed=19.8x    frame= 9579 fps=476 q=-0.0 size=N/A time=00:06:39.52 bitrate=N/A speed=19.9x    frame= 9845 fps=477 q=-0.0 size=N/A time=00:06:50.61 bitrate=N/A speed=19.9x    frame=10132 fps=479 q=-0.0 size=N/A time=00:07:02.58 bitrate=N/A speed=  20x    frame=10402 fps=480 q=-0.0 size=N/A time=00:07:13.85 bitrate=N/A speed=  20x    frame=10690 fps=482 q=-0.0 size=N/A time=00:07:25.86 bitrate=N/A speed=20.1x    frame=10940 fps=482 q=-0.0 size=N/A time=00:07:36.28 bitrate=N/A speed=20.1x    frame=11180 fps=482 q=-0.0 size=N/A time=00:07:46.29 bitrate=N/A speed=20.1x    frame=11437 fps=482 q=-0.0 size=N/A time=00:07:57.01 bitrate=N/A speed=20.1x    frame=11667 fps=481 q=-0.0 size=N/A time=00:08:06.61 bitrate=N/A speed=20.1x    frame=11916 fps=481 q=-0.0 size=N/A time=00:08:16.99 bitrate=N/A speed=20.1x    frame=12181 fps=482 q=-0.0 size=N/A time=00:08:28.04 bitrate=N/A speed=20.1x    frame=12360 fps=479 q=-0.0 size=N/A time=00:08:35.51 bitrate=N/A speed=  20x    frame=12486 fps=475 q=-0.0 size=N/A time=00:08:40.77 bitrate=N/A speed=19.8x    frame=12716 fps=474 q=-0.0 size=N/A time=00:08:50.36 bitrate=N/A speed=19.8x    frame=12963 fps=474 q=-0.0 size=N/A time=00:09:00.66 bitrate=N/A speed=19.8x    frame=13227 fps=475 q=-0.0 size=N/A time=00:09:11.67 bitrate=N/A speed=19.8x    frame=13469 fps=475 q=-0.0 size=N/A time=00:09:21.76 bitrate=N/A speed=19.8x    frame=13692 fps=474 q=-0.0 size=N/A time=00:09:31.07 bitrate=N/A speed=19.8x    frame=13935 fps=474 q=-0.0 size=N/A time=00:09:41.20 bitrate=N/A speed=19.8x    frame=14145 fps=473 q=-0.0 size=N/A time=00:09:49.96 bitrate=N/A speed=19.7x    frame=14373 fps=472 q=-0.0 size=N/A time=00:09:59.47 bitrate=N/A speed=19.7x    frame=14625 fps=472 q=-0.0 size=N/A time=00:10:09.98 bitrate=N/A speed=19.7x    frame=14903 fps=473 q=-0.0 size=N/A time=00:10:21.57 bitrate=N/A speed=19.7x    frame=15164 fps=474 q=-0.0 size=N/A time=00:10:32.46 bitrate=N/A speed=19.8x    frame=15416 fps=474 q=-0.0 size=N/A time=00:10:42.97 bitrate=N/A speed=19.8x    frame=15636 fps=473 q=-0.0 size=N/A time=00:10:52.15 bitrate=N/A speed=19.7x    frame=15906 fps=474 q=-0.0 size=N/A time=00:11:03.41 bitrate=N/A speed=19.8x    frame=16166 fps=475 q=-0.0 size=N/A time=00:11:14.25 bitrate=N/A speed=19.8x    frame=16351 fps=473 q=-0.0 size=N/A time=00:11:21.97 bitrate=N/A speed=19.7x    frame=16531 fps=471 q=-0.0 size=N/A time=00:11:29.48 bitrate=N/A speed=19.6x    frame=16776 fps=471 q=-0.0 size=N/A time=00:11:39.69 bitrate=N/A speed=19.7x    frame=17013 fps=471 q=-0.0 size=N/A time=00:11:49.58 bitrate=N/A speed=19.6x    frame=17254 fps=471 q=-0.0 size=N/A time=00:11:59.63 bitrate=N/A speed=19.6x    frame=17524 fps=472 q=-0.0 size=N/A time=00:12:10.89 bitrate=N/A speed=19.7x    frame=17800 fps=473 q=-0.0 size=N/A time=00:12:22.40 bitrate=N/A speed=19.7x    frame=18041 fps=473 q=-0.0 size=N/A time=00:12:32.46 bitrate=N/A speed=19.7x    frame=18262 fps=472 q=-0.0 size=N/A time=00:12:41.67 bitrate=N/A speed=19.7x    frame=18546 fps=473 q=-0.0 size=N/A time=00:12:53.52 bitrate=N/A speed=19.7x    frame=18781 fps=473 q=-0.0 size=N/A time=00:13:03.32 bitrate=N/A speed=19.7x    frame=19048 fps=473 q=-0.0 size=N/A time=00:13:14.46 bitrate=N/A speed=19.7x    frame=19319 fps=474 q=-0.0 size=N/A time=00:13:25.76 bitrate=N/A speed=19.8x    frame=19576 fps=474 q=-0.0 size=N/A time=00:13:36.48 bitrate=N/A speed=19.8x    frame=19843 fps=475 q=-0.0 size=N/A time=00:13:47.61 bitrate=N/A speed=19.8x    frame=20092 fps=475 q=-0.0 size=N/A time=00:13:58.00 bitrate=N/A speed=19.8x    frame=20322 fps=475 q=-0.0 size=N/A time=00:14:07.59 bitrate=N/A speed=19.8x    frame=20556 fps=474 q=-0.0 size=N/A time=00:14:17.35 bitrate=N/A speed=19.8x    frame=20810 fps=475 q=-0.0 size=N/A time=00:14:27.95 bitrate=N/A speed=19.8x    frame=21071 fps=475 q=-0.0 size=N/A time=00:14:38.83 bitrate=N/A speed=19.8x    frame=21356 fps=476 q=-0.0 size=N/A time=00:14:50.72 bitrate=N/A speed=19.8x    frame=21615 fps=476 q=-0.0 size=N/A time=00:15:01.52 bitrate=N/A speed=19.9x    frame=21893 fps=477 q=-0.0 size=N/A time=00:15:13.12 bitrate=N/A speed=19.9x    frame=22181 fps=478 q=-0.0 size=N/A time=00:15:25.13 bitrate=N/A speed=19.9x    frame=22437 fps=478 q=-0.0 size=N/A time=00:15:35.80 bitrate=N/A speed=19.9x    frame=22702 fps=478 q=-0.0 size=N/A time=00:15:46.86 bitrate=N/A speed=  20x    frame=22945 fps=478 q=-0.0 size=N/A time=00:15:56.99 bitrate=N/A speed=19.9x    frame=23195 fps=478 q=-0.0 size=N/A time=00:16:07.42 bitrate=N/A speed=19.9x    frame=23409 fps=478 q=-0.0 size=N/A time=00:16:16.35 bitrate=N/A speed=19.9x    frame=23689 fps=478 q=-0.0 size=N/A time=00:16:28.02 bitrate=N/A speed=19.9x    frame=23958 fps=479 q=-0.0 size=N/A time=00:16:39.24 bitrate=N/A speed=  20x    frame=24247 fps=480 q=-0.0 size=N/A time=00:16:51.30 bitrate=N/A speed=  20x    frame=24499 fps=480 q=-0.0 size=N/A time=00:17:01.81 bitrate=N/A speed=  20x    frame=24785 fps=480 q=-0.0 size=N/A time=00:17:13.74 bitrate=N/A speed=  20x    frame=25056 fps=481 q=-0.0 size=N/A time=00:17:25.04 bitrate=N/A speed=20.1x    frame=25306 fps=481 q=-0.0 size=N/A time=00:17:35.47 bitrate=N/A speed=20.1x    frame=25535 fps=481 q=-0.0 size=N/A time=00:17:45.02 bitrate=N/A speed=  20x    frame=25823 fps=481 q=-0.0 size=N/A time=00:17:57.03 bitrate=N/A speed=20.1x    frame=26105 fps=482 q=-0.0 size=N/A time=00:18:08.79 bitrate=N/A speed=20.1x    frame=26382 fps=482 q=-0.0 size=N/A time=00:18:20.34 bitrate=N/A speed=20.1x    frame=26639 fps=483 q=-0.0 size=N/A time=00:18:31.06 bitrate=N/A speed=20.1x    frame=26928 fps=483 q=-0.0 size=N/A time=00:18:43.12 bitrate=N/A speed=20.2x    frame=27176 fps=483 q=-0.0 size=N/A time=00:18:53.46 bitrate=N/A speed=20.2x    frame=27460 fps=484 q=-0.0 size=N/A time=00:19:05.31 bitrate=N/A speed=20.2x    frame=27748 fps=485 q=-0.0 size=N/A time=00:19:17.32 bitrate=N/A speed=20.2x    frame=28032 fps=485 q=-0.0 size=N/A time=00:19:29.16 bitrate=N/A speed=20.2x    frame=28300 fps=485 q=-0.0 size=N/A time=00:19:40.34 bitrate=N/A speed=20.2x    frame=28536 fps=485 q=-0.0 size=N/A time=00:19:50.18 bitrate=N/A speed=20.2x    frame=28789 fps=485 q=-0.0 size=N/A time=00:20:00.74 bitrate=N/A speed=20.2x    frame=29047 fps=485 q=-0.0 size=N/A time=00:20:11.50 bitrate=N/A speed=20.2x    frame=29317 fps=486 q=-0.0 size=N/A time=00:20:22.76 bitrate=N/A speed=20.3x    frame=29558 fps=486 q=-0.0 size=N/A time=00:20:32.81 bitrate=N/A speed=20.3x    frame=29839 fps=486 q=-0.0 size=N/A time=00:20:44.53 bitrate=N/A speed=20.3x    frame=30113 fps=486 q=-0.0 size=N/A time=00:20:55.96 bitrate=N/A speed=20.3x    frame=30274 fps=485 q=-0.0 size=N/A time=00:21:02.67 bitrate=N/A speed=20.2x    frame=30435 fps=484 q=-0.0 size=N/A time=00:21:09.39 bitrate=N/A speed=20.2x    frame=30715 fps=484 q=-0.0 size=N/A time=00:21:21.07 bitrate=N/A speed=20.2x    frame=31017 fps=485 q=-0.0 size=N/A time=00:21:33.66 bitrate=N/A speed=20.2x    frame=31294 fps=485 q=-0.0 size=N/A time=00:21:45.22 bitrate=N/A speed=20.2x    frame=31505 fps=485 q=-0.0 size=N/A time=00:21:54.02 bitrate=N/A speed=20.2x    frame=31780 fps=485 q=-0.0 size=N/A time=00:22:05.49 bitrate=N/A speed=20.2x    frame=32039 fps=485 q=-0.0 size=N/A time=00:22:16.29 bitrate=N/A speed=20.2x    frame=32324 fps=486 q=-0.0 size=N/A time=00:22:28.18 bitrate=N/A speed=20.3x    frame=32617 fps=486 q=-0.0 size=N/A time=00:22:40.40 bitrate=N/A speed=20.3x    frame=32883 fps=487 q=-0.0 size=N/A time=00:22:51.49 bitrate=N/A speed=20.3x    frame=33164 fps=487 q=-0.0 size=N/A time=00:23:03.21 bitrate=N/A speed=20.3x    frame=33445 fps=487 q=-0.0 size=N/A time=00:23:14.93 bitrate=N/A speed=20.3x    frame=33702 fps=487 q=-0.0 size=N/A time=00:23:25.65 bitrate=N/A speed=20.3x    frame=33957 fps=488 q=-0.0 size=N/A time=00:23:36.28 bitrate=N/A speed=20.3x    frame=34172 fps=487 q=-0.0 size=N/A time=00:23:45.25 bitrate=N/A speed=20.3x    frame=34332 fps=486 q=-0.0 size=N/A time=00:23:51.93 bitrate=N/A speed=20.3x    frame=34460 fps=484 q=-0.0 size=N/A time=00:23:57.26 bitrate=N/A speed=20.2x    frame=34572 fps=482 q=-0.0 size=N/A time=00:24:01.94 bitrate=N/A speed=20.1x    frame=34715 fps=481 q=-0.0 size=N/A time=00:24:07.90 bitrate=N/A speed=  20x    frame=34854 fps=479 q=-0.0 size=N/A time=00:24:13.70 bitrate=N/A speed=  20x    frame=34988 fps=478 q=-0.0 size=N/A time=00:24:19.29 bitrate=N/A speed=19.9x    frame=35128 fps=476 q=-0.0 size=N/A time=00:24:25.13 bitrate=N/A speed=19.9x    frame=35258 fps=475 q=-0.0 size=N/A time=00:24:30.55 bitrate=N/A speed=19.8x    frame=35401 fps=473 q=-0.0 size=N/A time=00:24:36.51 bitrate=N/A speed=19.7x    frame=35557 fps=472 q=-0.0 size=N/A time=00:24:43.02 bitrate=N/A speed=19.7x    frame=35700 fps=471 q=-0.0 size=N/A time=00:24:48.98 bitrate=N/A speed=19.6x    frame=35843 fps=469 q=-0.0 size=N/A time=00:24:54.95 bitrate=N/A speed=19.6x    frame=35982 fps=468 q=-0.0 size=N/A time=00:25:00.74 bitrate=N/A speed=19.5x    frame=36129 fps=467 q=-0.0 size=N/A time=00:25:06.88 bitrate=N/A speed=19.5x    [Parsed_ssim_10 @ 0000024cd09f0340] SSIM Y:0.994677 (22.738488) U:0.994299 (22.440602) V:0.993919 (22.160024) All:0.994488 (22.586657)
[out#0/null @ 0000024cc38c2280] video:15572KiB audio:283780KiB subtitle:0KiB other streams:0KiB global headers:0KiB muxing overhead: unknown
frame=36240 fps=466 q=-0.0 Lsize=N/A time=00:25:11.51 bitrate=N/A speed=19.4x    
